<svg width="424" height="155" viewBox="0 0 424 155" fill="none" xmlns="http://www.w3.org/2000/svg">
<path d="M71.8906 0C94.5626 0 109.215 15.0779 111.782 31.5231C118.774 32.8096 125.794 36.5336 131.398 41.8581C138.51 48.6164 143.781 58.3649 143.781 69.9988C143.781 89.4329 128.027 105.187 108.593 105.187H97.8091V95.3497C113.793 95.3497 132.43 90.4917 132.43 69.9988C132.43 61.9573 128.811 55.0574 123.579 50.0862C118.254 45.0266 111.699 42.3776 106.512 42.3776C103.377 42.3776 100.836 39.8366 100.836 36.7021C100.836 24.7444 90.746 11.3511 71.8906 11.3511C52.9916 11.3511 42.9452 24.4091 42.9452 36.7021C42.9452 39.8366 40.4041 42.3776 37.2696 42.3776C32.8536 42.3776 26.2442 44.5998 20.7306 49.4011C15.3793 54.0613 11.3511 60.8924 11.3511 69.9988C11.3511 92.6028 32.9467 95.3497 49.7559 95.3497V105.187H35.1886C15.7545 105.187 0 89.4329 0 69.9988C0 57.1597 5.81003 47.3423 13.2763 40.8405C18.9341 35.9136 25.7224 32.7319 31.9813 31.5475C34.502 14.8044 49.2028 0 71.8906 0Z" fill="#3E63DD"/>
<path d="M69.6116 83.0606L83.4958 82.9922L106.125 101.172C107.673 102.415 106.794 105.335 104.808 105.335L98.3153 105.755C97.3579 105.755 96.0085 104.587 95.2619 103.988L69.6116 83.0606Z" fill="#FFC33D"/>
<path d="M44.3459 63.2256V62.911C44.4384 58.3484 46.5475 53.6213 49.8361 49.8942C53.2021 46.0816 57.9626 43.1873 63.4702 41.6058C68.9779 40.0242 74.9628 39.8325 80.6129 41.0566C86.263 42.2807 91.3008 44.8611 95.0392 48.4462C98.7801 52.0312 101.039 56.4465 101.509 61.0902C101.979 65.7339 100.639 70.3802 97.6706 74.3956C94.7019 78.4112 90.2488 81.6005 84.9185 83.5292C84.0712 83.8358 83.2494 84.0946 82.4433 84.3096V83.0446H69.4922L69.408 76.5744C73.1739 77.1363 77.2518 76.7421 80.7378 75.4803C84.2263 74.2186 87.1376 72.132 89.0818 69.505C91.0234 66.878 91.279 64.1281 90.9716 61.0902C90.6617 58.0523 89.682 56.2047 87.2356 53.8593C84.7891 51.514 81.8227 50.3359 78.1267 49.5349C74.4308 48.7342 70.515 48.8597 66.9116 49.8942C63.3081 50.9289 60.1944 52.8223 57.9929 55.3166C55.7913 57.8108 53.462 63.3238 53.462 66.3715L52.6374 68.0957C52.3425 68.7121 51.8527 69.2178 51.2405 69.5366L49.4637 70.4611L44.6233 63.3216L44.3459 63.2256Z" fill="#FFC33D"/>
<path d="M79.674 65.7403C81.1847 63.9603 81.2293 61.2649 79.3106 59.9347C77.8772 58.941 76.3051 58.2313 74.6565 57.8449C71.7632 57.1669 68.7643 57.5149 66.039 58.845C63.3136 60.175 60.9842 62.4274 59.3453 65.3173C57.7064 68.2072 56.8317 71.6048 56.8317 75.0804H65.6778C65.6778 73.6662 66.0338 72.2837 66.7006 71.1078C67.3675 69.932 68.3153 69.0155 69.4242 68.4743C70.5332 67.9331 71.7534 67.7915 72.9307 68.0674C74.8356 68.5138 77.1889 68.6683 78.455 67.1765L79.674 65.7403Z" fill="#FFC33D"/>
<path d="M42.9118 97.268C41.4011 99.048 41.3565 101.743 43.2752 103.074C44.7086 104.067 46.2807 104.777 47.9294 105.163C50.8226 105.841 53.8215 105.493 56.5469 104.163C59.2722 102.833 61.6016 100.581 63.2405 97.6911C64.8794 94.8012 65.7541 91.4036 65.7541 87.928H56.908C56.908 89.3422 56.5521 90.7246 55.8852 91.9005C55.2183 93.0764 54.2705 93.9929 53.1616 94.5341C52.0526 95.0753 50.8324 95.2169 49.6551 94.941C47.7502 94.4945 45.3969 94.3401 44.1308 95.8318L42.9118 97.268Z" fill="#FFC33D"/>
<path d="M56.8317 75.0804H65.6921V87.9279H56.8317V75.0804Z" fill="#FFC33D"/>
<path d="M79.674 65.7379C81.1847 63.9579 81.2293 61.2625 79.3106 59.9323C77.8772 58.9386 76.3051 58.2289 74.6565 57.8426C71.7632 57.1645 68.7643 57.5125 66.039 58.8426C63.3136 60.1726 60.9842 62.425 59.3453 65.3149C57.7064 68.2048 56.8317 71.6024 56.8317 75.078H65.6778C65.6778 73.6638 66.0338 72.2813 66.7006 71.1055C67.3675 69.9296 68.3153 69.0131 69.4242 68.4719C70.5332 67.9307 71.7534 67.7891 72.9307 68.065C74.8356 68.5114 77.1889 68.6659 78.455 67.1741L79.674 65.7379Z" fill="#FFE629"/>
<path d="M42.9118 97.2657C41.4011 99.0456 41.3565 101.741 43.2752 103.071C44.7086 104.065 46.2807 104.775 47.9294 105.161C50.8226 105.839 53.8215 105.491 56.5469 104.161C59.2722 102.831 61.6016 100.579 63.2405 97.6887C64.8794 94.7988 65.7541 91.4012 65.7541 87.9256H56.908C56.908 89.3398 56.5521 90.7222 55.8852 91.8981C55.2183 93.074 54.2705 93.9905 53.1616 94.5317C52.0526 95.0729 50.8324 95.2145 49.6551 94.9386C47.7502 94.4922 45.3969 94.3377 44.1308 95.8294L42.9118 97.2657Z" fill="#FFE629"/>
<path d="M56.8317 75.078H65.6921V87.9255H56.8317V75.078Z" fill="#FFE629"/>
<path d="M143.287 125.813H117.893V149.294H143.999V152.895H113.992V122.1H143.287V125.813ZM120.631 148.506L118.193 145.131C121.306 142.843 124.382 140.104 127.495 136.991C124.157 133.578 121.569 130.99 119.694 129.227L122.319 126.376C125.02 128.852 127.683 131.402 130.346 133.99C132.709 131.365 134.847 128.702 136.76 126.039L139.911 128.477C137.773 131.402 135.56 134.178 133.197 136.766C136.348 139.917 138.973 142.617 141.111 144.906L138.373 148.544C135.86 145.731 133.159 142.843 130.271 139.879C126.97 143.255 123.745 146.143 120.631 148.506Z" fill="#3E63DD"/>
<path d="M105.914 134.703H98.9374V148.919H107.302V152.633H86.1844V148.919H95.1115V134.703H88.4724V130.877H95.1115V120.15L98.9374 120.3V130.877H105.914V134.703ZM90.3103 140.63L88.3224 143.743C87.5347 142.843 85.9218 141.38 83.5212 139.317V153.908H79.8829V140.705C78.27 142.43 76.6571 143.931 75.0442 145.168L73.0938 141.755C75.5318 139.505 77.5573 137.517 79.0952 135.829C80.633 134.103 81.9459 132.303 83.0336 130.465H75.3068V126.751H80.258C79.8454 124.764 79.3577 122.888 78.8326 121.088L82.321 120.675C82.696 121.763 83.1837 123.788 83.8213 126.751H87.1221V130.465C86.3344 132.078 85.3592 133.691 84.1964 135.379C85.0591 136.016 86.1469 136.954 87.4972 138.117C88.8475 139.279 89.7852 140.105 90.3103 140.63Z" fill="#3E63DD"/>
<path d="M61.0405 128.514H69.8176V131.215H37.935V128.514H46.4495C46.262 127.389 46.1119 126.451 45.9244 125.701H39.8479V122.925H52.1884C51.9633 122.213 51.7007 121.463 51.4007 120.675L55.039 120.075L56.0893 122.925H67.9421V125.701H61.7156C61.5656 126.451 61.3405 127.389 61.0405 128.514ZM58.1148 125.701H49.5252C49.7878 126.939 49.9378 127.877 50.0504 128.514H57.4396L58.1148 125.701ZM41.7234 133.09H65.8791V143.93H54.739C56.2018 145.318 57.2896 146.443 58.0773 147.306L55.7517 149.632C55.3016 149.069 54.6264 148.319 53.7262 147.381C52.8635 146.443 52.0758 145.656 51.4382 145.018L52.6385 143.93H41.7234V133.09ZM45.3617 137.329H62.2783V135.603H45.3617V137.329ZM62.2783 139.692H45.3617V141.417H62.2783V139.692ZM62.9909 145.918L65.6916 144.043C66.4793 144.981 67.3795 146.106 68.3922 147.456C69.405 148.769 70.2302 149.894 70.8678 150.832L68.0921 153.045C67.492 152.107 66.6668 150.907 65.6541 149.482C64.6413 148.019 63.7411 146.856 62.9909 145.918ZM39.998 152.933L37.0723 150.907C38.7227 148.919 40.5981 146.181 41.6484 144.23L44.7241 145.731C44.1615 146.819 43.4488 148.056 42.5486 149.407C41.6484 150.757 40.7856 151.92 39.998 152.933ZM59.3151 146.481L62.8034 147.719C62.7284 148.657 62.6534 149.444 62.5408 150.157C62.1657 152.745 61.1155 153.12 57.7772 153.345C56.5019 153.42 55.2266 153.458 53.9138 153.458C52.601 153.458 51.3257 153.42 50.0504 153.345C46.8996 153.12 45.8118 152.445 45.8118 149.444V145.018L49.5252 145.168V148.957C49.5252 150.194 49.8628 150.457 51.3632 150.569C52.3009 150.644 53.2011 150.682 54.1388 150.682C55.0765 150.682 56.0143 150.644 56.9145 150.569C58.7524 150.419 59.015 150.307 59.165 149.069C59.2776 148.281 59.3151 147.419 59.3151 146.481Z" fill="#3E63DD"/>
<path d="M16.2414 126.527V130.202C15.8663 133.728 15.3787 136.654 14.816 138.942C14.2534 141.23 13.4282 143.256 12.4155 145.056C14.516 146.744 16.2789 148.169 17.7042 149.407L15.3412 152.82C13.8033 151.357 12.0404 149.857 10.1274 148.244C8.51453 150.157 6.07645 152.333 2.81317 154.808L0 151.995C3.30079 149.782 5.73887 147.757 7.35175 145.919C5.62634 144.531 3.90093 143.181 2.13801 141.868C3.18826 138.042 4.01346 134.178 4.65111 130.277H1.08776V126.527H5.17623C5.43879 124.351 5.66385 122.176 5.85139 120L9.60228 120.375C9.41474 122.551 9.18969 124.614 8.92712 126.527H16.2414ZM21.7552 153.383H18.1918V124.163H31.6575V153.195H28.1692V150.607H21.7552V153.383ZM28.1692 127.839H21.7552V146.931H28.1692V127.839ZM9.60228 142.843C10.465 141.343 11.1026 139.617 11.5152 137.704C11.9653 135.754 12.3404 133.278 12.603 130.277H8.402C7.76435 134.216 7.08919 137.554 6.3015 140.367C7.91438 141.53 9.00214 142.355 9.60228 142.843Z" fill="#3E63DD"/>
<rect x="164" y="35.7554" width="5" height="70" rx="2.5" fill="#3E63DD"/>
<path d="M391.9 87.7921L388.744 79.5844C388.58 79.1593 388.178 78.8868 387.731 78.8868H367.059C366.613 78.8868 366.21 79.1593 366.047 79.5844L362.89 87.7921C362.727 88.2172 362.324 88.4897 361.878 88.4897H349.533C349.141 88.4897 348.88 88.0973 349.032 87.7376L370.151 37.0961C370.488 36.2895 371.283 35.7554 372.165 35.7554H382.55C383.431 35.7554 384.215 36.2786 384.563 37.0961L405.693 87.7267C405.845 88.0864 405.584 88.4788 405.192 88.4788H392.924C392.477 88.4788 392.075 88.2063 391.911 87.7812L391.9 87.7921ZM376.889 51.7021L371 66.9731C370.858 67.3328 371.13 67.7143 371.511 67.7143H383.366C383.747 67.7143 384.008 67.3328 383.878 66.9731L377.923 51.7021C377.738 51.2443 377.085 51.2443 376.911 51.7021H376.889Z" fill="#3E63DD"/>
<path d="M342.096 51.4077H331.983C331.382 51.4077 330.895 51.8957 330.895 52.4977V87.2034C330.895 87.8054 331.382 88.2934 331.983 88.2934H342.096C342.697 88.2934 343.185 87.8054 343.185 87.2034V52.4977C343.185 51.8957 342.697 51.4077 342.096 51.4077Z" fill="#3E63DD"/>
<path d="M422.719 35.8232H412.606C412.005 35.8232 411.518 36.3283 411.518 36.9514V87.3616C411.518 87.9846 412.005 88.4897 412.606 88.4897H422.719C423.32 88.4897 423.808 87.9846 423.808 87.3616V36.9514C423.808 36.3283 423.32 35.8232 422.719 35.8232Z" fill="#3E63DD"/>
<path d="M258.429 88.4787C247.663 88.2825 239.248 79.0393 239.248 68.2592V53.3261C239.248 52.2688 240.108 51.4077 241.164 51.4077H249.611C250.667 51.4077 251.527 52.2688 251.527 53.3261V68.4881C251.527 72.423 254.466 75.9546 258.396 76.1617C262.587 76.3797 266.049 73.0443 266.049 68.9023V53.3261C266.049 52.2688 266.909 51.4077 267.965 51.4077H276.412C277.468 51.4077 278.328 52.2688 278.328 53.3261V68.9023C278.328 79.835 269.38 88.6749 258.407 88.4787H258.429Z" fill="#3E63DD"/>
<path d="M321.295 51.4077H312.847C311.792 51.4077 310.932 52.2688 310.932 53.3261V68.9023C310.932 73.0443 307.47 76.3797 303.279 76.1617C299.349 75.9546 296.41 72.423 296.41 68.4881V53.3261C296.41 52.2688 295.55 51.4077 294.494 51.4077H286.047C284.991 51.4077 284.131 52.2688 284.131 53.3261V68.2592C284.131 78.1346 291.174 86.9309 300.938 88.2934C304.15 88.7403 307.22 88.3806 310.006 87.4214C310.311 87.3233 310.605 87.5958 310.496 87.901C309.321 91.1383 306.24 93.46 302.604 93.46H296.835C295.779 93.46 294.919 94.3211 294.919 95.3784V103.837C294.919 104.894 295.779 105.755 296.835 105.755H303.29C314.306 105.755 323.233 96.8173 323.233 85.7864V53.3261C323.233 52.2688 322.373 51.4077 321.317 51.4077H321.295Z" fill="#3E63DD"/>
<path d="M221.396 68.3574C228.515 66.3627 233.708 59.7354 233.501 51.9092C233.272 43.0148 225.173 35.7554 216.28 35.7554H190.916C189.86 35.7554 189 36.6165 189 37.6738V86.5604C189 87.6177 189.86 88.4788 190.916 88.4788H199.363C200.419 88.4788 201.279 87.6177 201.279 86.5604V69.9488C201.279 69.4147 201.715 68.9896 202.237 68.9896H206.047C206.613 68.9896 207.147 69.2403 207.517 69.6654L222.898 87.8139C223.268 88.239 223.802 88.4897 224.368 88.4897H236.843C237.257 88.4897 237.474 88.0101 237.202 87.694L221.146 69.1313C220.917 68.8588 221.048 68.4555 221.385 68.3683L221.396 68.3574ZM201.29 55.7024V49.0316C201.29 48.4975 201.725 48.0724 202.248 48.0724H216.682C218.925 48.0724 220.971 49.6856 221.2 51.931C221.461 54.5034 219.447 56.6725 216.933 56.6725H202.248C201.715 56.6725 201.29 56.2365 201.29 55.7133V55.7024Z" fill="#3E63DD"/>
</svg>
